{"title":"Twilight Saga Part 2 2012 Cam XviD Feel-Free","uid":7837302,"size":1110152056,"categoryP":"video","categoryS":"movies","magnet":"?xt=urn:btih:45a51fbac8f5e552f0ffe3bccc6e174a9d1a0ea9&amp;dn=Twilight+Saga+Part+2+2012+Cam+XviD+Feel-Free&amp;tr=udp%3A%2F%2Ftracker.openbittorrent.com%3A80&amp;tr=udp%3A%2F%2Fopen.demonii.com%3A1337&amp;tr=udp%3A%2F%2Ftracker.coppersurfer.tk%3A6969&amp;tr=udp%3A%2F%2Fexodus.desync.com%3A6969","seeders":2,"leechers":0,"uploader":"hiest","files":-1,"time":1353235764,"description":"8888888888                888      8888888888                       \n888                       888      888                              \n888                       888      888                              \n8888888  .d88b.   .d88b.  888      8888888 888d888 .d88b.   .d88b.  \n888     d8P  Y8b d8P  Y8b 888      888     888P&quot;  d8P  Y8b d8P  Y8b \n888     88888888 88888888 888      888     888    88888888 88888888 \n888     Y8b.     Y8b.     888      888     888    Y8b.     Y8b.     \n888      &quot;Y8888   &quot;Y8888  888      888     888     &quot;Y8888   &quot;Y8888  \n\n\n################Credits To Feel Free, Pitic &amp; Tony################\n\n\nGenre: Adventure | Drama | Fantasy \nLanguage:English\nIMDb: &lt;a href=&quot;\nhttp://www.imdb.com/title/tt1673434&quot; rel=&quot;nofollow&quot; target=&quot;_NEW&quot;&gt;\nhttp://www.imdb.com/title/tt1673434&lt;/a&gt;\nSource:MATiNE Thanks\nEncoder:Tony\n\nFormat : AVI\nFormat/Info : Audio Video Interleave\nFile size : 1.03 GiB\nDuration : 1h 42mn\nOverall bit rate : 1 443 Kbps\n\nVideo\nID : 0\nFormat : MPEG-4 Visual\nFormat profile : Simple@L5\nFormat settings, BVOP : No\nFormat settings, QPel : No\nFormat settings, GMC : No warppoints\nFormat settings, Matrix : Default (H.263)\nCodec ID : XVID\nCodec ID/Hint : XviD\nDuration : 1h 42mn\nBit rate : 1 304 Kbps\nWidth : 640 pixels\nHeight : 304 pixels\nDisplay aspect ratio : 2.2:1\nFrame rate : 29.970 fps\nColor space : YUV\nChroma subsampling : 4:2:0\nBit depth : 8 bits\nScan type : Progressive\nCompression mode : Lossy\nBits/(Pixel*Frame) : 0.224\nStream size : 955 MiB (90%)\nWriting library : XviD 64\n\nAudio\nID : 1\nFormat : MPEG Audio\nFormat version : Version 1\nFormat profile : Layer 3\nCodec ID : 55\nCodec ID/Hint : MP3\nDuration : 1h 42mn\nBit rate mode : Constant\nBit rate : 128 Kbps\nChannel(s) : 2 channels\nSampling rate : 44.1 KHz\nCompression mode : Lossy\nDelay relative to video : 2ms\nStream size : 93.8 MiB (9%)\nAlignment : Split accross interleaves\nInterleave, duration : 33 ms (1.00 video frame)\nInterleave, preload duration : 500 ms\n\n\nPlot:\nAfter the birth of Renesmee, the Cullens gather other vampire clans in order to protect the child from a false allegation that puts the family in front of the Volturi.\n\n\nScreen Shots:\n                                                    &lt;a href=&quot;\nhttp://lookpic.com/O/i2/1369/98DE7fQn.png&quot; rel=&quot;nofollow&quot; target=&quot;_NEW&quot;&gt;\nhttp://lookpic.com/O/i2/1369/98DE7fQn.png&lt;/a&gt;\n &lt;a href=&quot;\nhttp://lookpic.com/O/i2/1882/PlQ0dEcj.png&quot; rel=&quot;nofollow&quot; target=&quot;_NEW&quot;&gt;\nhttp://lookpic.com/O/i2/1882/PlQ0dEcj.png&lt;/a&gt;\n &lt;a href=&quot;\nhttp://lookpic.com/O/i2/513/1Ga8MBv.png&quot; rel=&quot;nofollow&quot; target=&quot;_NEW&quot;&gt;\nhttp://lookpic.com/O/i2/513/1Ga8MBv.png&lt;/a&gt;\n &lt;a href=&quot;\nhttp://lookpic.com/O/i2/40/YTDHk4j4.png&quot; rel=&quot;nofollow&quot; target=&quot;_NEW&quot;&gt;\nhttp://lookpic.com/O/i2/40/YTDHk4j4.png&lt;/a&gt;\n\n\n################Credits To Feel Free, Pitic &amp; Tony################\n\n\n8888888888                888      8888888888                       \n888                       888      888                              \n888                       888      888                              \n8888888  .d88b.   .d88b.  888      8888888 888d888 .d88b.   .d88b.  \n888     d8P  Y8b d8P  Y8b 888      888     888P&quot;  d8P  Y8b d8P  Y8b \n888     88888888 88888888 888      888     888    88888888 88888888 \n888     Y8b.     Y8b.     888      888     888    Y8b.     Y8b.     \n888      &quot;Y8888   &quot;Y8888  888      888     888     &quot;Y8888   &quot;Y8888  \t","torrent":{"xt":"urn:btih:45a51fbac8f5e552f0ffe3bccc6e174a9d1a0ea9","amp;dn":"Twilight+Saga+Part+2+2012+Cam+XviD+Feel-Free","amp;tr":["udp%3A%2F%2Ftracker.openbittorrent.com%3A80","udp%3A%2F%2Fopen.demonii.com%3A1337","udp%3A%2F%2Ftracker.coppersurfer.tk%3A6969","udp%3A%2F%2Fexodus.desync.com%3A6969"],"infoHash":"45a51fbac8f5e552f0ffe3bccc6e174a9d1a0ea9","infoHashBuffer":{"type":"Buffer","data":[69,165,31,186,200,245,229,82,240,255,227,188,204,110,23,74,157,26,14,169]},"announce":[],"urlList":[]}}